<mxfile host="app.diagrams.net" modified="2024-06-06T11:20:25.920Z" agent="Mozilla/5.0 (X11; Ubuntu; Linux x86_64; rv:126.0) Gecko/20100101 Firefox/126.0" etag="uZZJ47525lerUwbi4h4d" version="24.4.15" type="github">
  <diagram name="Pagina-1" id="WJZg5tV51setkM5HHoCN">
    <mxGraphModel dx="702" dy="845" grid="0" gridSize="10" guides="1" tooltips="1" connect="1" arrows="1" fold="1" page="0" pageScale="1" pageWidth="827" pageHeight="1169" math="0" shadow="0">
      <root>
        <mxCell id="0" />
        <mxCell id="1" parent="0" />
        <mxCell id="-UqokCm4gtfoZtFQlKwy-1" value="" style="shape=folder;fontStyle=1;spacingTop=10;tabWidth=210;tabHeight=30;tabPosition=left;html=1;whiteSpace=wrap;" parent="1" vertex="1">
          <mxGeometry x="174" y="10" width="492" height="254" as="geometry" />
        </mxCell>
        <mxCell id="-UqokCm4gtfoZtFQlKwy-2" value="&lt;font color=&quot;#ffffff&quot;&gt;Interfaccia GestioneAmministratore&lt;/font&gt;" style="text;strokeColor=#C73500;fillColor=#fa6800;html=1;align=center;verticalAlign=middle;whiteSpace=wrap;rounded=0;fontSize=16;fontColor=#000000;" parent="1" vertex="1">
          <mxGeometry x="174" y="10" width="269" height="30" as="geometry" />
        </mxCell>
        <mxCell id="-UqokCm4gtfoZtFQlKwy-3" style="edgeStyle=none;curved=1;rounded=0;orthogonalLoop=1;jettySize=auto;html=1;exitX=0.5;exitY=0;exitDx=0;exitDy=0;fontSize=12;startSize=8;endSize=8;" parent="1" edge="1">
          <mxGeometry relative="1" as="geometry">
            <mxPoint x="588" y="28" as="sourcePoint" />
            <mxPoint x="588" y="28" as="targetPoint" />
          </mxGeometry>
        </mxCell>
        <mxCell id="-UqokCm4gtfoZtFQlKwy-4" value="" style="shape=folder;fontStyle=1;spacingTop=10;tabWidth=140;tabHeight=31;tabPosition=left;html=1;whiteSpace=wrap;" parent="1" vertex="1">
          <mxGeometry x="359" y="315" width="264.5" height="189" as="geometry" />
        </mxCell>
        <mxCell id="-UqokCm4gtfoZtFQlKwy-5" value="GestioneAmministratore" style="text;html=1;align=center;verticalAlign=middle;resizable=0;points=[];autosize=1;fontSize=16;fillColor=#60a917;fontColor=#ffffff;strokeColor=#2D7600;" parent="1" vertex="1">
          <mxGeometry x="359" y="315" width="189" height="31" as="geometry" />
        </mxCell>
        <mxCell id="-UqokCm4gtfoZtFQlKwy-6" value="&lt;font color=&quot;#ffffff&quot;&gt;View ValidazionePalestra&lt;br&gt;&lt;/font&gt;" style="swimlane;fontStyle=1;align=center;verticalAlign=top;childLayout=stackLayout;horizontal=1;startSize=26;horizontalStack=0;resizeParent=1;resizeParentMax=0;resizeLast=0;collapsible=1;marginBottom=0;whiteSpace=wrap;html=1;fillColor=#fa6800;fontColor=#000000;strokeColor=#C73500;" parent="1" vertex="1">
          <mxGeometry x="184" y="173" width="150" height="70" as="geometry" />
        </mxCell>
        <mxCell id="-UqokCm4gtfoZtFQlKwy-7" value="" style="text;strokeColor=#C73500;fillColor=#fa6800;align=left;verticalAlign=top;spacingLeft=4;spacingRight=4;overflow=hidden;rotatable=0;points=[[0,0.5],[1,0.5]];portConstraint=eastwest;whiteSpace=wrap;html=1;fontColor=#000000;" parent="-UqokCm4gtfoZtFQlKwy-6" vertex="1">
          <mxGeometry y="26" width="150" height="24" as="geometry" />
        </mxCell>
        <mxCell id="-UqokCm4gtfoZtFQlKwy-8" value="" style="line;strokeWidth=1;fillColor=#fa6800;align=left;verticalAlign=middle;spacingTop=-1;spacingLeft=3;spacingRight=3;rotatable=0;labelPosition=right;points=[];portConstraint=eastwest;strokeColor=#FF8000;fontColor=#000000;" parent="-UqokCm4gtfoZtFQlKwy-6" vertex="1">
          <mxGeometry y="50" width="150" as="geometry" />
        </mxCell>
        <mxCell id="-UqokCm4gtfoZtFQlKwy-9" value="&lt;div&gt;&lt;br&gt;&lt;/div&gt;&lt;div&gt;&lt;br&gt;&lt;/div&gt;" style="text;strokeColor=#C73500;fillColor=#fa6800;align=left;verticalAlign=top;spacingLeft=4;spacingRight=4;overflow=hidden;rotatable=0;points=[[0,0.5],[1,0.5]];portConstraint=eastwest;whiteSpace=wrap;html=1;fontColor=#000000;" parent="-UqokCm4gtfoZtFQlKwy-6" vertex="1">
          <mxGeometry y="50" width="150" height="20" as="geometry" />
        </mxCell>
        <mxCell id="-UqokCm4gtfoZtFQlKwy-15" value="&lt;font color=&quot;#ffffff&quot;&gt;Home GestioneAmminitratore&lt;/font&gt;" style="swimlane;fontStyle=1;align=center;verticalAlign=top;childLayout=stackLayout;horizontal=1;startSize=26;horizontalStack=0;resizeParent=1;resizeParentMax=0;resizeLast=0;collapsible=1;marginBottom=0;whiteSpace=wrap;html=1;fillColor=#fa6800;fontColor=#000000;strokeColor=#C73500;" parent="1" vertex="1">
          <mxGeometry x="348" y="95" width="205" height="70" as="geometry" />
        </mxCell>
        <mxCell id="-UqokCm4gtfoZtFQlKwy-16" value="" style="text;strokeColor=#C73500;fillColor=#fa6800;align=left;verticalAlign=top;spacingLeft=4;spacingRight=4;overflow=hidden;rotatable=0;points=[[0,0.5],[1,0.5]];portConstraint=eastwest;whiteSpace=wrap;html=1;fontColor=#000000;" parent="-UqokCm4gtfoZtFQlKwy-15" vertex="1">
          <mxGeometry y="26" width="205" height="24" as="geometry" />
        </mxCell>
        <mxCell id="-UqokCm4gtfoZtFQlKwy-17" value="" style="line;strokeWidth=1;fillColor=#fa6800;align=left;verticalAlign=middle;spacingTop=-1;spacingLeft=3;spacingRight=3;rotatable=0;labelPosition=right;points=[];portConstraint=eastwest;strokeColor=#FF8000;fontColor=#000000;" parent="-UqokCm4gtfoZtFQlKwy-15" vertex="1">
          <mxGeometry y="50" width="205" as="geometry" />
        </mxCell>
        <mxCell id="-UqokCm4gtfoZtFQlKwy-18" value="&lt;div&gt;&lt;br&gt;&lt;/div&gt;&lt;div&gt;&lt;br&gt;&lt;/div&gt;" style="text;strokeColor=#C73500;fillColor=#fa6800;align=left;verticalAlign=top;spacingLeft=4;spacingRight=4;overflow=hidden;rotatable=0;points=[[0,0.5],[1,0.5]];portConstraint=eastwest;whiteSpace=wrap;html=1;fontColor=#000000;" parent="-UqokCm4gtfoZtFQlKwy-15" vertex="1">
          <mxGeometry y="50" width="205" height="20" as="geometry" />
        </mxCell>
        <mxCell id="-UqokCm4gtfoZtFQlKwy-19" value="&lt;font color=&quot;#ffffff&quot;&gt;GestioneAmministratore Controller&lt;br&gt;&lt;/font&gt;" style="swimlane;fontStyle=1;align=center;verticalAlign=top;childLayout=stackLayout;horizontal=1;startSize=26;horizontalStack=0;resizeParent=1;resizeParentMax=0;resizeLast=0;collapsible=1;marginBottom=0;whiteSpace=wrap;html=1;fillColor=#60a917;fontColor=#ffffff;strokeColor=#2D7600;" parent="1" vertex="1">
          <mxGeometry x="394" y="374" width="211.75" height="118" as="geometry" />
        </mxCell>
        <mxCell id="-UqokCm4gtfoZtFQlKwy-20" value="" style="text;strokeColor=#2D7600;fillColor=#60a917;align=left;verticalAlign=top;spacingLeft=4;spacingRight=4;overflow=hidden;rotatable=0;points=[[0,0.5],[1,0.5]];portConstraint=eastwest;whiteSpace=wrap;html=1;fontColor=#ffffff;" parent="-UqokCm4gtfoZtFQlKwy-19" vertex="1">
          <mxGeometry y="26" width="211.75" height="24" as="geometry" />
        </mxCell>
        <mxCell id="-UqokCm4gtfoZtFQlKwy-21" value="" style="line;strokeWidth=1;fillColor=#fa6800;align=left;verticalAlign=middle;spacingTop=-1;spacingLeft=3;spacingRight=3;rotatable=0;labelPosition=right;points=[];portConstraint=eastwest;strokeColor=#FF8000;fontColor=#000000;" parent="-UqokCm4gtfoZtFQlKwy-19" vertex="1">
          <mxGeometry y="50" width="211.75" as="geometry" />
        </mxCell>
        <mxCell id="-UqokCm4gtfoZtFQlKwy-22" value="&lt;div&gt;+ validaPalestra(Palestra)&lt;br&gt;&lt;/div&gt;&lt;div&gt;+ mostraPalestre()&lt;br&gt;&lt;/div&gt;" style="text;strokeColor=#2D7600;fillColor=#60a917;align=left;verticalAlign=top;spacingLeft=4;spacingRight=4;overflow=hidden;rotatable=0;points=[[0,0.5],[1,0.5]];portConstraint=eastwest;whiteSpace=wrap;html=1;fontColor=#ffffff;" parent="-UqokCm4gtfoZtFQlKwy-19" vertex="1">
          <mxGeometry y="50" width="211.75" height="68" as="geometry" />
        </mxCell>
        <mxCell id="-UqokCm4gtfoZtFQlKwy-23" style="edgeStyle=none;curved=1;rounded=0;orthogonalLoop=1;jettySize=auto;html=1;fontSize=12;startSize=8;endSize=8;dashed=1;entryX=0.25;entryY=0;entryDx=0;entryDy=0;" parent="1" target="-UqokCm4gtfoZtFQlKwy-19" edge="1">
          <mxGeometry relative="1" as="geometry">
            <mxPoint x="522" y="410" as="targetPoint" />
            <mxPoint x="447" y="169" as="sourcePoint" />
          </mxGeometry>
        </mxCell>
        <mxCell id="-UqokCm4gtfoZtFQlKwy-24" value="&amp;lt;&amp;lt;use&amp;gt;&amp;gt;" style="edgeLabel;html=1;align=center;verticalAlign=middle;resizable=0;points=[];fontSize=12;" parent="-UqokCm4gtfoZtFQlKwy-23" vertex="1" connectable="0">
          <mxGeometry x="-0.3538" y="5" relative="1" as="geometry">
            <mxPoint x="-5" y="37" as="offset" />
          </mxGeometry>
        </mxCell>
        <mxCell id="-UqokCm4gtfoZtFQlKwy-25" style="edgeStyle=none;curved=0;rounded=0;orthogonalLoop=1;jettySize=auto;html=1;exitX=0.5;exitY=1;exitDx=0;exitDy=0;fontSize=12;startSize=8;endSize=8;entryX=0;entryY=0.25;entryDx=0;entryDy=0;dashed=1;strokeColor=none;" parent="1" target="-UqokCm4gtfoZtFQlKwy-19" edge="1">
          <mxGeometry relative="1" as="geometry">
            <mxPoint x="264" y="214" as="sourcePoint" />
            <mxPoint x="264" y="533" as="targetPoint" />
            <Array as="points">
              <mxPoint x="264" y="434" />
            </Array>
          </mxGeometry>
        </mxCell>
        <mxCell id="-UqokCm4gtfoZtFQlKwy-26" style="edgeStyle=none;curved=0;rounded=0;orthogonalLoop=1;jettySize=auto;html=1;fontSize=12;startSize=8;endSize=8;dashed=1;" parent="1" edge="1">
          <mxGeometry relative="1" as="geometry">
            <mxPoint x="207" y="246" as="sourcePoint" />
            <mxPoint x="391" y="412" as="targetPoint" />
            <Array as="points">
              <mxPoint x="207" y="412" />
            </Array>
          </mxGeometry>
        </mxCell>
        <mxCell id="-UqokCm4gtfoZtFQlKwy-27" value="&amp;lt;&amp;lt;use&amp;gt;&amp;gt;" style="edgeLabel;html=1;align=center;verticalAlign=middle;resizable=0;points=[];fontSize=12;" parent="-UqokCm4gtfoZtFQlKwy-26" vertex="1" connectable="0">
          <mxGeometry x="-0.272" y="-1" relative="1" as="geometry">
            <mxPoint as="offset" />
          </mxGeometry>
        </mxCell>
        <mxCell id="-UqokCm4gtfoZtFQlKwy-31" style="edgeStyle=none;curved=0;rounded=0;orthogonalLoop=1;jettySize=auto;html=1;fontSize=12;startSize=8;endSize=8;" parent="1" edge="1">
          <mxGeometry relative="1" as="geometry">
            <mxPoint x="348" y="121.25" as="sourcePoint" />
            <mxPoint x="229.95" y="173" as="targetPoint" />
            <Array as="points">
              <mxPoint x="230" y="121.25" />
            </Array>
          </mxGeometry>
        </mxCell>
        <mxCell id="Xs4WIwLngwTa04sp4Ij4-1" value="" style="shape=folder;fontStyle=1;spacingTop=10;tabWidth=46;tabHeight=28;tabPosition=left;html=1;whiteSpace=wrap;" parent="1" vertex="1">
          <mxGeometry x="700" y="316" width="264.5" height="189" as="geometry" />
        </mxCell>
        <mxCell id="Xs4WIwLngwTa04sp4Ij4-2" value="Log" style="text;html=1;align=center;verticalAlign=middle;resizable=0;points=[];autosize=1;fontSize=16;fillColor=#60a917;fontColor=#ffffff;strokeColor=#2D7600;" parent="1" vertex="1">
          <mxGeometry x="700" y="315" width="45" height="31" as="geometry" />
        </mxCell>
        <mxCell id="Xs4WIwLngwTa04sp4Ij4-3" value="Registrazione Controller" style="swimlane;fontStyle=1;align=center;verticalAlign=top;childLayout=stackLayout;horizontal=1;startSize=26;horizontalStack=0;resizeParent=1;resizeParentMax=0;resizeLast=0;collapsible=1;marginBottom=0;whiteSpace=wrap;html=1;fillColor=#60a917;fontColor=#ffffff;strokeColor=#2D7600;" parent="1" vertex="1">
          <mxGeometry x="737.25" y="375" width="170" height="78" as="geometry" />
        </mxCell>
        <mxCell id="Xs4WIwLngwTa04sp4Ij4-4" value="" style="text;strokeColor=#2D7600;fillColor=#60a917;align=left;verticalAlign=top;spacingLeft=4;spacingRight=4;overflow=hidden;rotatable=0;points=[[0,0.5],[1,0.5]];portConstraint=eastwest;whiteSpace=wrap;html=1;fontColor=#ffffff;" parent="Xs4WIwLngwTa04sp4Ij4-3" vertex="1">
          <mxGeometry y="26" width="170" height="24" as="geometry" />
        </mxCell>
        <mxCell id="Xs4WIwLngwTa04sp4Ij4-5" value="" style="line;strokeWidth=1;fillColor=#fa6800;align=left;verticalAlign=middle;spacingTop=-1;spacingLeft=3;spacingRight=3;rotatable=0;labelPosition=right;points=[];portConstraint=eastwest;strokeColor=#FF8000;fontColor=#000000;" parent="Xs4WIwLngwTa04sp4Ij4-3" vertex="1">
          <mxGeometry y="50" width="170" as="geometry" />
        </mxCell>
        <mxCell id="Xs4WIwLngwTa04sp4Ij4-6" value="+ aggiungiVoce(Log)" style="text;strokeColor=#2D7600;fillColor=#60a917;align=left;verticalAlign=top;spacingLeft=4;spacingRight=4;overflow=hidden;rotatable=0;points=[[0,0.5],[1,0.5]];portConstraint=eastwest;whiteSpace=wrap;html=1;fontColor=#ffffff;" parent="Xs4WIwLngwTa04sp4Ij4-3" vertex="1">
          <mxGeometry y="50" width="170" height="28" as="geometry" />
        </mxCell>
        <mxCell id="Xs4WIwLngwTa04sp4Ij4-7" style="edgeStyle=none;curved=1;rounded=0;orthogonalLoop=1;jettySize=auto;html=1;exitX=1;exitY=0.25;exitDx=0;exitDy=0;fontSize=12;startSize=8;endSize=8;entryX=-0.011;entryY=-0.002;entryDx=0;entryDy=0;entryPerimeter=0;dashed=1;" parent="1" target="Xs4WIwLngwTa04sp4Ij4-4" edge="1">
          <mxGeometry relative="1" as="geometry">
            <mxPoint x="605.7499999999999" y="400.5" as="sourcePoint" />
            <mxPoint x="731" y="400" as="targetPoint" />
          </mxGeometry>
        </mxCell>
      </root>
    </mxGraphModel>
  </diagram>
</mxfile>
